<?xml version="1.0" standalone="no"?>
<!DOCTYPE svg PUBLIC "-//W3C//DTD SVG 20010904//EN"
 "http://www.w3.org/TR/2001/REC-SVG-20010904/DTD/svg10.dtd">
<svg version="1.0" xmlns="http://www.w3.org/2000/svg"
 width="2290.000000pt" height="2290.000000pt" viewBox="0 0 2290.000000 2290.000000"
 preserveAspectRatio="xMidYMid meet">
<metadata>
Created by potrace 1.11, written by Peter Selinger 2001-2013
</metadata>
<g transform="translate(0.000000,2290.000000) scale(0.100000,-0.100000)"
fill="#000000" stroke="none">
<path d="M11337 22854 c-1 -1 -56 -4 -122 -8 -136 -7 -181 -11 -315 -32 -52
-9 -110 -18 -129 -20 -19 -2 -37 -6 -41 -9 -4 -2 -22 -7 -41 -10 -183 -32
-499 -143 -729 -256 -425 -209 -807 -515 -1082 -869 -265 -342 -481 -804 -553
-1185 -39 -210 -56 -382 -57 -576 -1 -120 7 -303 17 -369 2 -14 6 -47 9 -75 6
-44 49 -265 60 -305 2 -8 7 -28 11 -45 29 -122 127 -379 202 -530 178 -355
368 -604 692 -905 87 -81 404 -310 429 -310 6 0 12 -4 14 -9 5 -16 326 -176
448 -224 234 -92 488 -162 695 -193 28 -4 57 -9 65 -10 8 -2 42 -6 75 -10 33
-3 68 -8 79 -10 106 -20 591 -20 761 1 17 2 53 6 81 10 29 3 61 7 72 10 11 2
42 7 69 10 69 10 256 53 337 76 38 12 76 22 85 24 40 9 263 92 351 132 885
395 1495 1101 1720 1990 26 106 46 210 65 353 24 168 24 607 1 725 -5 27 -19
126 -21 145 -1 17 -9 53 -32 155 -95 421 -305 843 -592 1185 -213 254 -458
463 -781 666 -190 119 -497 257 -745 335 -90 28 -125 37 -205 55 -14 3 -41 9
-60 14 -19 5 -55 12 -80 15 -24 4 -48 9 -52 11 -4 3 -22 7 -40 8 -18 2 -60 7
-93 11 -33 4 -73 9 -90 11 -93 11 -468 25 -478 18z"/>
<path d="M11247 10914 c-1 -1 -47 -5 -102 -9 -100 -7 -121 -9 -205 -20 -25 -4
-57 -8 -70 -10 -51 -6 -167 -26 -210 -36 -25 -6 -52 -12 -60 -14 -273 -58
-657 -215 -930 -380 -84 -51 -297 -198 -310 -214 -3 -4 -48 -43 -100 -87 -100
-86 -205 -192 -280 -284 -25 -30 -47 -57 -50 -60 -7 -6 -62 -83 -112 -155
-117 -170 -252 -464 -312 -680 -24 -84 -58 -243 -70 -326 -32 -218 -28 -634 9
-866 3 -18 8 -50 11 -70 5 -33 29 -157 39 -203 26 -114 91 -313 140 -430 93
-223 176 -378 302 -563 279 -412 620 -709 1063 -929 286 -141 585 -231 940
-283 14 -2 52 -7 84 -11 33 -3 67 -8 75 -9 9 -2 26 -4 37 -4 l21 -1 -18 -67
c-101 -364 -269 -724 -508 -1088 -36 -55 -68 -104 -70 -109 -8 -19 -221 -324
-258 -371 -5 -5 -46 -59 -92 -120 -87 -114 -195 -246 -284 -350 -29 -32 -68
-77 -87 -99 -118 -137 -292 -318 -586 -611 -240 -240 -338 -351 -395 -451 -40
-69 -76 -142 -82 -163 -8 -32 -9 -34 -18 -60 -53 -137 -3 -453 93 -593 10 -14
18 -29 18 -33 0 -4 23 -37 51 -74 56 -72 134 -150 218 -221 30 -25 59 -49 65
-55 6 -5 58 -50 116 -100 58 -49 107 -92 110 -95 3 -3 48 -41 100 -85 52 -44
97 -82 100 -85 3 -4 102 -89 220 -190 118 -102 224 -193 234 -202 11 -10 23
-18 26 -18 4 0 31 18 61 40 30 23 65 49 79 59 162 120 285 213 331 251 30 25
75 61 99 80 128 103 349 289 380 320 3 3 43 39 90 80 161 141 634 605 755 741
22 25 76 85 120 134 44 50 82 92 85 95 3 3 30 34 60 70 30 36 57 67 60 70 39
37 367 448 499 625 45 61 88 118 96 127 7 9 22 29 31 45 10 15 32 47 49 69 16
23 37 52 45 64 8 13 33 48 55 79 22 31 57 81 76 111 20 30 65 100 101 155 77
119 228 364 228 371 0 3 15 28 33 57 90 141 341 624 460 884 233 510 408 1016
535 1543 42 174 55 231 82 380 6 30 12 66 15 80 3 13 7 40 10 60 3 20 7 45 9
55 2 11 7 45 11 75 4 30 9 64 11 75 4 22 10 71 20 180 3 39 8 78 9 87 23 121
23 785 0 929 -2 13 -6 51 -10 84 -4 32 -8 66 -10 75 -3 17 -17 108 -20 130
-21 152 -105 479 -166 648 -193 533 -506 978 -924 1312 -298 237 -759 465
-1095 540 -138 31 -239 51 -330 64 -101 15 -129 18 -285 32 -63 5 -513 13
-518 8z"/>
</g>
</svg>
