<?xml version="1.0" standalone="no"?>
<!DOCTYPE svg PUBLIC "-//W3C//DTD SVG 20010904//EN"
 "http://www.w3.org/TR/2001/REC-SVG-20010904/DTD/svg10.dtd">
<svg version="1.0" xmlns="http://www.w3.org/2000/svg"
 width="3097.000000pt" height="3097.000000pt" viewBox="0 0 3097.000000 3097.000000"
 preserveAspectRatio="xMidYMid meet">
<metadata>
Created by potrace 1.14, written by Peter Selinger 2001-2017
</metadata>
<g transform="translate(0.000000,3097.000000) scale(0.100000,-0.100000)"
fill="#000000" stroke="none">
<path d="M15038 30965 c-2 -2 -84 -6 -183 -10 -99 -3 -198 -8 -220 -9 -22 -2
-92 -7 -155 -11 -63 -4 -131 -9 -150 -10 -34 -2 -171 -14 -240 -20 -19 -2 -68
-6 -108 -10 -41 -4 -81 -8 -90 -10 -9 -1 -53 -6 -97 -9 -44 -4 -87 -9 -95 -11
-8 -2 -42 -7 -74 -10 -33 -3 -71 -7 -85 -9 -14 -3 -48 -7 -76 -10 -27 -4 -61
-8 -75 -11 -28 -5 -73 -11 -145 -20 -45 -6 -430 -69 -481 -79 -12 -2 -37 -7
-55 -10 -157 -25 -664 -135 -969 -210 -196 -49 -601 -162 -795 -223 -44 -13
-87 -26 -95 -28 -8 -2 -100 -33 -205 -68 -104 -35 -212 -72 -240 -81 -27 -9
-59 -21 -70 -25 -11 -5 -78 -29 -150 -55 -71 -26 -146 -53 -165 -61 -159 -62
-401 -159 -427 -171 -17 -8 -34 -14 -37 -14 -3 0 -29 -11 -58 -24 -29 -13 -82
-36 -118 -51 -36 -15 -93 -40 -128 -56 -35 -16 -65 -29 -66 -29 -2 0 -55 -24
-117 -54 -63 -29 -136 -64 -164 -76 -27 -12 -160 -77 -295 -145 -298 -148
-374 -188 -675 -358 -88 -50 -173 -97 -188 -106 -16 -9 -36 -21 -45 -26 -164
-99 -369 -223 -388 -235 -583 -367 -1146 -774 -1654 -1194 -80 -66 -147 -123
-150 -126 -3 -3 -21 -18 -40 -34 -32 -26 -129 -111 -184 -161 -13 -11 -54 -48
-92 -82 -327 -289 -799 -756 -1110 -1099 -132 -144 -178 -196 -252 -283 -26
-30 -54 -62 -62 -71 -8 -8 -35 -40 -60 -70 -25 -30 -47 -57 -50 -60 -3 -3 -37
-43 -75 -90 -38 -47 -72 -87 -75 -90 -3 -3 -21 -25 -40 -50 -19 -25 -40 -51
-47 -58 -6 -7 -56 -70 -109 -140 -54 -70 -101 -129 -104 -132 -6 -5 -205 -273
-245 -330 -11 -15 -63 -90 -115 -165 -52 -75 -100 -142 -105 -149 -10 -11
-202 -297 -220 -328 -22 -37 -135 -214 -142 -223 -11 -13 -253 -416 -288 -480
-15 -27 -45 -79 -65 -115 -141 -244 -385 -716 -520 -1005 -23 -49 -57 -121
-75 -160 -180 -386 -431 -1017 -578 -1455 -87 -258 -246 -778 -272 -889 -7
-29 -45 -173 -75 -286 -16 -60 -31 -121 -34 -135 -2 -14 -11 -52 -19 -85 -9
-33 -18 -71 -20 -85 -3 -14 -14 -63 -25 -110 -17 -71 -40 -178 -79 -365 -4
-16 -7 -37 -8 -45 -1 -8 -12 -64 -23 -125 -26 -135 -29 -154 -42 -235 -6 -36
-13 -76 -15 -90 -13 -69 -35 -211 -40 -259 -3 -30 -8 -57 -10 -60 -2 -4 -6
-35 -10 -71 -3 -36 -8 -72 -10 -80 -2 -8 -7 -40 -10 -70 -3 -30 -7 -66 -10
-80 -2 -14 -7 -52 -11 -85 -3 -33 -7 -71 -9 -85 -1 -14 -6 -59 -9 -100 -4 -41
-9 -88 -12 -103 -2 -15 -6 -53 -9 -84 -2 -31 -6 -83 -9 -117 -16 -178 -28
-359 -41 -611 -23 -459 -19 -1245 10 -1630 2 -33 7 -105 10 -160 3 -55 8 -118
10 -140 2 -22 7 -76 10 -120 3 -44 8 -98 10 -120 2 -22 7 -70 10 -106 3 -36 7
-76 10 -90 2 -13 6 -53 10 -89 6 -69 22 -209 29 -250 3 -14 8 -52 11 -85 4
-33 9 -69 11 -80 1 -11 5 -38 8 -60 12 -85 15 -103 30 -200 9 -55 18 -116 21
-135 6 -39 25 -142 54 -300 11 -58 22 -118 25 -135 6 -31 43 -214 71 -345 9
-41 29 -131 46 -199 16 -68 31 -133 33 -145 3 -11 25 -100 51 -196 25 -96 47
-182 49 -190 24 -96 116 -419 126 -445 5 -11 20 -58 34 -105 74 -250 310 -921
383 -1090 8 -19 19 -45 24 -57 5 -13 13 -33 18 -45 5 -13 11 -30 14 -38 12
-35 165 -391 215 -500 16 -36 40 -87 52 -115 135 -298 388 -798 533 -1055 11
-19 31 -55 45 -80 29 -52 186 -321 213 -365 10 -16 22 -37 26 -45 28 -58 381
-604 538 -830 72 -104 346 -483 355 -490 3 -3 32 -41 65 -85 179 -241 560
-699 795 -959 19 -21 46 -50 59 -65 119 -133 296 -317 506 -526 248 -248 335
-332 515 -495 51 -47 98 -90 104 -95 26 -24 186 -164 235 -205 29 -25 58 -50
65 -55 6 -6 38 -33 71 -60 33 -28 62 -52 65 -55 3 -3 30 -25 60 -50 30 -25 64
-53 75 -62 413 -344 1097 -830 1615 -1148 74 -45 162 -99 195 -120 70 -43 326
-190 405 -233 30 -16 60 -33 65 -37 6 -4 60 -33 120 -65 61 -32 115 -61 120
-65 13 -10 552 -279 640 -320 217 -101 339 -155 491 -220 258 -110 318 -134
464 -190 74 -29 144 -56 155 -61 43 -19 310 -114 520 -185 291 -99 540 -176
845 -260 140 -39 197 -54 340 -89 8 -2 70 -17 137 -34 67 -17 132 -32 145 -35
13 -3 66 -14 118 -26 135 -30 459 -96 565 -115 163 -30 379 -65 425 -71 25 -3
52 -7 60 -9 8 -2 35 -7 60 -10 25 -3 56 -8 70 -10 41 -7 261 -35 315 -41 28
-3 57 -7 65 -9 8 -2 49 -7 90 -10 41 -3 86 -8 100 -10 27 -4 112 -13 195 -20
28 -2 81 -7 120 -10 72 -7 88 -9 270 -20 61 -4 128 -8 150 -10 319 -27 1406
-27 1785 0 30 2 101 7 157 10 57 2 122 7 145 9 24 3 77 8 118 11 41 3 93 8
115 10 22 2 72 7 110 11 143 13 252 25 273 29 9 1 49 6 87 9 39 4 77 9 85 11
8 3 38 7 65 9 28 3 66 8 85 11 19 3 49 7 65 10 17 2 47 6 68 9 20 3 52 8 70
11 17 3 43 7 57 9 14 2 59 10 100 16 100 15 115 18 185 31 65 12 78 14 170 30
33 5 112 21 175 34 63 13 131 27 150 30 50 9 321 70 490 111 80 20 152 37 160
39 59 13 555 149 600 165 34 12 233 73 245 76 19 3 429 142 570 192 232 83
775 295 824 323 9 4 36 17 61 27 281 120 499 222 845 397 176 89 336 171 355
183 19 11 59 33 89 48 30 15 118 64 196 109 78 45 148 85 156 88 8 4 30 17 49
28 454 274 792 491 1065 685 33 24 87 62 120 86 90 64 409 300 415 307 3 3 23
19 45 35 45 33 277 217 285 225 3 3 28 24 55 46 61 48 354 295 410 346 22 20
87 78 145 130 57 52 112 101 121 109 426 396 770 746 1114 1134 39 44 75 84
80 90 19 20 190 222 230 271 22 27 63 76 90 109 188 226 492 625 645 846 8 12
35 50 59 83 58 80 351 517 351 524 0 2 13 23 29 46 36 53 241 386 241 392 0 3
15 28 33 57 19 29 45 73 59 98 14 25 44 77 66 115 47 83 78 139 184 335 77
141 334 654 398 795 102 223 107 233 180 405 81 188 205 496 237 585 13 39 30
84 38 100 46 106 307 885 330 985 2 8 22 77 44 153 23 76 45 155 50 175 6 20
30 116 55 212 42 158 102 404 112 455 3 17 7 33 19 85 7 29 27 123 31 146 3
16 14 67 24 114 10 47 22 105 25 130 4 24 8 47 11 51 2 3 6 24 9 45 2 21 7 50
10 64 3 14 7 39 10 55 3 17 7 41 10 55 3 14 7 39 10 55 3 17 7 41 10 55 6 34
63 405 70 458 3 23 7 61 10 85 3 23 8 53 10 67 2 14 7 54 10 90 4 36 8 76 10
90 2 14 6 50 10 80 3 30 7 71 10 90 2 19 7 62 10 95 3 33 7 83 10 110 12 132
15 167 22 255 11 128 10 2200 0 2320 -5 52 -10 111 -12 130 -2 19 -7 73 -11
120 -4 47 -8 96 -9 110 -2 14 -6 57 -9 95 -4 39 -9 84 -11 100 -2 17 -7 57
-10 90 -3 33 -8 71 -10 85 -3 14 -7 50 -11 80 -3 30 -8 62 -9 70 -2 9 -6 43
-10 75 -4 33 -9 71 -11 85 -2 14 -7 43 -10 65 -3 22 -14 92 -24 155 -10 63
-21 131 -24 150 -3 19 -8 46 -10 60 -3 14 -7 41 -10 61 -3 20 -7 42 -10 50 -3
8 -7 32 -10 54 -3 22 -8 51 -11 65 -3 14 -8 39 -10 55 -3 17 -8 37 -10 45 -2
8 -6 26 -9 40 -2 14 -7 43 -11 65 -4 22 -18 90 -31 150 -13 61 -32 144 -40
185 -68 312 -262 1044 -307 1155 -6 17 -12 35 -12 40 -1 6 -4 17 -7 25 -3 8
-42 125 -86 260 -75 228 -152 448 -172 495 -5 11 -30 76 -55 145 -26 69 -56
144 -66 167 -10 23 -19 45 -19 48 0 16 -209 507 -284 670 -18 39 -53 113 -76
165 -47 101 -316 637 -367 730 -17 30 -50 91 -74 135 -38 71 -116 209 -170
303 -11 17 -27 47 -38 65 -100 174 -288 476 -450 722 -96 146 -318 468 -348
505 -6 8 -63 85 -125 170 -63 85 -156 210 -208 276 -52 67 -105 135 -118 151
-69 90 -424 515 -462 553 -3 3 -34 39 -70 80 -36 41 -74 84 -85 96 -11 11 -42
45 -69 75 -251 278 -734 762 -1005 1005 -30 27 -64 58 -75 69 -12 11 -73 65
-136 120 -63 55 -117 102 -120 106 -7 9 -238 201 -360 299 -58 47 -107 87
-110 90 -3 3 -34 27 -70 55 -36 27 -67 52 -70 55 -3 3 -41 32 -85 65 -44 33
-85 64 -91 70 -11 10 -176 130 -309 226 -38 27 -77 55 -85 62 -8 7 -32 23 -53
36 -21 12 -43 28 -50 35 -13 13 -460 309 -522 346 -22 13 -41 28 -43 32 -2 4
-7 8 -12 8 -4 0 -58 32 -119 70 -62 39 -116 70 -121 70 -6 0 -10 5 -10 10 0 6
-4 10 -9 10 -5 0 -61 32 -125 70 -64 39 -121 70 -126 70 -6 0 -10 5 -10 10 0
6 -4 10 -9 10 -7 0 -175 91 -221 120 -8 5 -42 23 -75 41 -33 17 -114 61 -180
96 -206 112 -669 339 -853 419 -31 14 -79 36 -107 49 -57 26 -454 195 -459
195 -2 0 -21 7 -42 16 -22 9 -40 16 -42 15 -1 -1 -15 5 -30 13 -53 28 -546
208 -795 290 -250 84 -598 191 -752 232 -315 84 -613 158 -825 204 -174 38
-176 39 -220 46 -19 3 -37 7 -40 9 -13 8 -739 133 -865 150 -522 66 -507 65
-565 70 -25 2 -72 6 -105 9 -100 11 -157 16 -215 20 -30 3 -91 8 -135 11 -43
4 -109 8 -145 10 -36 2 -110 7 -165 10 -55 4 -134 9 -175 11 -88 5 -1177 13
-1182 9z m1112 -2729 c30 -2 105 -7 165 -10 61 -4 133 -8 160 -11 28 -2 82 -7
120 -10 125 -10 248 -22 315 -30 19 -2 60 -7 90 -11 30 -3 64 -7 75 -9 11 -1
47 -6 80 -10 33 -3 71 -8 85 -11 14 -2 77 -11 140 -19 63 -9 151 -22 195 -30
44 -8 96 -17 115 -20 30 -5 274 -49 327 -60 148 -29 400 -85 563 -125 69 -18
133 -33 143 -35 117 -25 682 -195 927 -280 74 -26 140 -48 145 -49 6 -2 17 -6
25 -9 8 -4 58 -22 110 -41 113 -41 327 -122 355 -136 11 -5 74 -31 140 -59
248 -102 440 -189 740 -337 1109 -546 2131 -1253 3065 -2119 115 -107 553
-547 650 -654 52 -57 104 -114 115 -125 11 -12 61 -68 110 -125 50 -57 100
-115 113 -130 37 -42 51 -59 156 -186 54 -66 105 -129 115 -140 230 -280 619
-829 852 -1203 78 -125 199 -325 199 -328 0 -1 19 -35 43 -76 24 -40 58 -99
75 -130 18 -32 46 -84 64 -115 83 -149 274 -527 358 -708 85 -181 110 -236
110 -240 0 -2 11 -28 24 -57 44 -98 86 -196 86 -202 0 -3 11 -29 24 -58 13
-29 47 -111 75 -183 28 -71 56 -143 62 -160 7 -16 13 -34 15 -40 1 -5 32 -93
69 -195 56 -156 167 -490 180 -540 5 -22 43 -150 57 -190 6 -19 14 -48 18 -65
4 -16 19 -73 33 -125 82 -305 174 -696 203 -860 2 -14 9 -47 15 -75 6 -27 12
-66 15 -85 2 -19 8 -55 14 -80 8 -40 16 -84 35 -197 10 -61 14 -88 25 -168 6
-44 13 -91 15 -105 2 -14 7 -45 10 -70 3 -25 9 -79 15 -120 13 -107 19 -158
25 -215 11 -98 14 -131 20 -205 3 -41 8 -91 10 -110 2 -19 6 -78 10 -130 3
-52 8 -122 10 -155 26 -384 26 -1373 0 -1560 -2 -16 -7 -73 -10 -125 -6 -98
-9 -146 -20 -265 -4 -38 -9 -90 -11 -115 -2 -25 -6 -64 -9 -87 -3 -24 -7 -64
-11 -90 -6 -60 -23 -195 -30 -248 -5 -41 -7 -55 -19 -135 -4 -25 -8 -56 -10
-70 -5 -37 -17 -112 -21 -135 -2 -11 -7 -40 -10 -65 -3 -25 -8 -48 -10 -51 -2
-4 -6 -28 -9 -55 -3 -27 -8 -56 -11 -65 -4 -14 -24 -117 -41 -214 -2 -16 -20
-100 -40 -185 -19 -85 -37 -166 -39 -180 -10 -53 -117 -471 -150 -588 -20 -68
-37 -131 -39 -140 -26 -123 -313 -953 -390 -1127 -24 -55 -105 -254 -105 -259
0 -2 -18 -44 -40 -93 -23 -48 -45 -97 -50 -108 -70 -163 -337 -711 -405 -830
-12 -22 -38 -69 -58 -105 -19 -36 -44 -81 -55 -100 -11 -19 -32 -56 -46 -83
-38 -70 -258 -436 -312 -520 -99 -152 -278 -422 -283 -427 -4 -3 -31 -41 -61
-85 -30 -44 -58 -84 -62 -90 -4 -5 -70 -93 -145 -195 -76 -102 -143 -192 -150
-200 -6 -8 -51 -64 -99 -125 -48 -60 -90 -112 -93 -115 -3 -3 -35 -41 -71 -85
-35 -44 -67 -82 -70 -85 -3 -3 -30 -34 -60 -70 -30 -36 -59 -70 -65 -76 -17
-18 -139 -155 -158 -178 -128 -148 -606 -633 -797 -807 -58 -53 -118 -108
-135 -123 -27 -25 -112 -100 -169 -149 -12 -10 -32 -28 -46 -40 -24 -21 -183
-155 -225 -188 -11 -10 -49 -41 -85 -71 -36 -30 -83 -67 -105 -83 -22 -17 -42
-33 -45 -36 -26 -30 -497 -374 -680 -496 -63 -43 -117 -80 -120 -83 -15 -17
-465 -297 -640 -398 -101 -58 -105 -61 -245 -140 -197 -110 -627 -329 -817
-416 -32 -14 -82 -37 -110 -50 -88 -40 -358 -156 -438 -188 -41 -17 -86 -35
-100 -41 -14 -6 -27 -11 -30 -11 -5 -2 -126 -48 -175 -67 -16 -7 -34 -13 -40
-15 -5 -1 -41 -14 -80 -29 -38 -15 -104 -38 -145 -52 -41 -14 -88 -31 -105
-38 -16 -7 -84 -29 -150 -50 -66 -20 -145 -46 -175 -56 -50 -16 -243 -75 -280
-84 -8 -3 -49 -14 -90 -25 -68 -19 -444 -117 -480 -125 -8 -2 -64 -15 -125
-28 -108 -25 -245 -54 -295 -63 -14 -3 -57 -12 -96 -20 -40 -9 -82 -17 -95
-18 -13 -2 -53 -9 -89 -16 -36 -7 -74 -14 -85 -15 -11 -2 -65 -11 -120 -20
-55 -9 -111 -18 -125 -20 -14 -2 -47 -7 -75 -10 -27 -4 -62 -8 -77 -11 -16 -2
-40 -6 -55 -8 -16 -3 -50 -7 -78 -11 -27 -3 -63 -8 -80 -10 -59 -8 -121 -15
-180 -20 -33 -3 -73 -7 -90 -10 -16 -2 -61 -7 -100 -10 -38 -3 -88 -8 -110
-10 -22 -2 -83 -7 -135 -10 -52 -4 -115 -8 -140 -10 -320 -27 -1243 -27 -1627
0 -121 9 -229 17 -268 20 -154 14 -183 16 -210 20 -16 3 -59 7 -95 10 -36 3
-76 7 -90 9 -14 3 -52 7 -85 11 -53 5 -369 49 -435 60 -21 3 -225 39 -425 75
-162 29 -473 98 -705 157 -74 19 -142 37 -150 39 -388 94 -1161 354 -1565 525
-38 17 -92 39 -120 51 -27 11 -63 27 -80 34 -449 189 -1185 568 -1535 789 -19
12 -89 55 -155 95 -195 120 -484 312 -695 463 -107 77 -405 301 -446 336 -17
14 -48 40 -70 56 -51 40 -196 157 -210 170 -6 5 -33 28 -59 50 -27 22 -53 45
-59 50 -6 6 -43 37 -81 70 -39 33 -75 64 -81 70 -6 5 -46 42 -90 80 -152 135
-221 202 -494 475 -324 324 -372 375 -625 664 -33 38 -65 74 -70 80 -6 6 -55
65 -109 131 -54 66 -105 129 -115 140 -108 132 -379 489 -462 610 -19 28 -36
52 -39 55 -7 6 -132 190 -231 340 -94 142 -244 382 -266 424 -9 17 -19 33 -23
36 -7 5 -188 323 -274 480 -77 141 -308 605 -375 755 -35 77 -72 158 -82 180
-27 60 -141 328 -143 340 -2 6 -8 21 -14 35 -6 14 -38 97 -72 185 -33 88 -63
167 -67 175 -3 8 -7 20 -9 25 -1 6 -30 89 -64 185 -55 156 -176 531 -185 570
-3 14 -52 188 -77 275 -6 22 -12 45 -14 50 -1 6 -27 111 -57 235 -31 124 -63
261 -72 304 -9 44 -17 82 -19 85 -2 3 -7 22 -10 41 -3 19 -10 58 -16 85 -5 28
-17 86 -25 130 -8 44 -17 91 -20 105 -3 14 -8 41 -11 60 -2 19 -9 58 -14 85
-5 28 -12 64 -14 80 -3 17 -7 44 -10 61 -3 17 -8 46 -10 65 -3 19 -14 99 -25
179 -11 80 -23 168 -26 195 -3 28 -7 64 -10 80 -2 17 -7 57 -10 90 -3 33 -8
80 -11 105 -3 25 -7 70 -9 100 -3 30 -7 75 -10 100 -2 25 -7 83 -10 130 -3 47
-8 108 -10 135 -4 51 -13 236 -20 430 -5 130 -5 663 0 820 5 165 18 404 31
563 2 35 7 89 9 120 4 53 10 115 20 202 2 19 7 64 10 100 3 36 7 76 10 90 2
14 7 52 10 85 3 33 8 71 10 85 9 61 14 98 20 145 3 28 8 61 10 75 3 14 7 39 9
55 19 124 50 310 71 415 13 69 27 140 30 159 5 27 34 168 70 331 15 70 102
415 135 535 23 83 43 155 44 160 40 157 205 653 304 920 122 327 353 875 384
912 6 7 8 13 5 13 -21 0 484 960 583 1110 6 8 15 24 20 35 6 11 18 32 28 47 9
15 48 78 86 140 67 109 328 505 395 598 17 25 43 61 56 80 125 181 575 762
635 820 3 3 27 32 55 65 27 33 54 65 60 71 13 15 136 152 157 176 156 178 671
700 857 869 57 52 116 105 130 117 14 13 53 47 85 75 33 29 64 57 70 62 6 6
40 35 76 65 36 30 67 58 70 61 3 3 86 71 185 151 227 182 531 412 685 517 36
24 67 47 70 50 3 3 13 11 22 16 9 6 96 63 192 128 224 150 493 316 738 455
269 153 270 153 588 314 262 132 334 167 505 243 33 15 83 37 111 50 27 13 75
33 105 45 30 12 68 28 84 35 47 22 195 81 380 151 94 36 177 68 185 71 8 3 20
7 25 9 6 1 102 34 215 73 247 85 590 191 730 226 8 3 40 11 70 19 219 57 480
121 529 131 14 2 211 44 291 61 60 12 358 66 390 70 19 2 49 7 65 11 17 3 40
7 52 9 12 1 34 5 50 8 15 3 53 8 83 12 30 3 57 7 60 9 3 1 34 6 70 10 36 4 74
9 85 11 10 2 49 6 85 10 36 3 74 8 85 10 11 2 49 6 86 9 36 3 75 7 87 10 12 2
63 7 114 10 51 4 104 8 116 10 13 2 67 7 120 10 54 3 122 8 152 10 30 2 125 7
210 10 85 4 156 9 158 10 5 5 997 -4 1062 -9z"/>
<path d="M15418 24745 c-2 -2 -37 -6 -78 -9 -201 -15 -478 -78 -646 -147 -16
-7 -34 -13 -40 -14 -30 -7 -252 -119 -344 -175 -228 -137 -436 -314 -595 -505
-27 -33 -52 -62 -55 -65 -17 -17 -75 -99 -132 -186 -121 -184 -258 -485 -303
-664 -36 -147 -51 -216 -60 -286 -3 -22 -7 -50 -10 -64 -9 -44 -18 -213 -18
-315 3 -649 266 -1274 726 -1721 226 -218 430 -357 729 -493 96 -44 337 -123
418 -138 14 -2 41 -8 60 -13 19 -5 53 -11 75 -15 23 -3 50 -7 61 -9 143 -28
530 -28 684 -1 14 2 45 7 70 10 68 10 245 53 335 82 450 147 838 416 1151 798
129 158 243 355 357 615 57 130 132 432 154 615 18 154 7 580 -17 675 -5 19
-11 51 -14 70 -26 164 -107 404 -202 595 -40 83 -80 159 -86 169 -7 11 -33 51
-58 90 -87 137 -203 279 -326 402 -93 92 -269 237 -353 289 -9 6 -41 27 -71
46 -225 146 -589 288 -825 323 -22 4 -47 8 -55 11 -8 2 -35 6 -60 9 -25 3 -67
8 -95 12 -50 6 -372 13 -377 9z"/>
<path d="M15408 14465 c-2 -1 -39 -5 -83 -9 -329 -27 -682 -140 -983 -316
-132 -77 -108 -61 -257 -173 -95 -72 -312 -275 -370 -347 -216 -269 -335 -477
-440 -765 -26 -72 -114 -394 -131 -478 -2 -10 -6 -27 -9 -37 -3 -10 -7 -27 -9
-37 -2 -10 -21 -81 -41 -158 -20 -77 -39 -151 -41 -165 -1 -14 -12 -54 -23
-90 -11 -36 -22 -78 -25 -95 -3 -16 -19 -84 -37 -150 -17 -66 -32 -124 -33
-130 -1 -5 -5 -19 -9 -30 -3 -11 -8 -31 -11 -45 -3 -14 -26 -106 -51 -205 -25
-99 -48 -187 -50 -195 -2 -8 -24 -98 -50 -200 -26 -102 -48 -192 -50 -200 -3
-8 -23 -87 -45 -175 -23 -88 -43 -171 -46 -185 -3 -14 -9 -39 -15 -56 -5 -17
-11 -40 -13 -50 -6 -25 -307 -1220 -352 -1394 -20 -74 -37 -142 -39 -150 -2
-8 -40 -159 -85 -335 -44 -176 -83 -327 -85 -335 -4 -18 -253 -1006 -364
-1440 -43 -173 -78 -317 -76 -320 2 -3 670 -5 1486 -5 l1482 0 599 895 c330
492 620 928 646 968 26 41 55 83 65 94 9 12 17 25 17 29 0 4 6 14 13 21 6 8
17 21 22 30 17 29 810 1213 815 1218 3 3 30 43 60 90 30 47 59 90 63 95 24 31
207 309 207 316 0 4 3 9 8 11 10 4 72 97 72 107 0 5 4 11 8 13 19 7 490 730
543 832 122 234 214 502 245 714 3 20 7 44 9 52 19 74 28 510 13 630 -24 191
-50 314 -100 470 -27 82 -83 230 -108 279 -98 198 -127 248 -244 416 -72 104
-242 289 -368 402 -59 52 -228 176 -313 229 -230 143 -515 258 -770 310 -65
13 -198 34 -250 39 -63 7 -391 15 -397 10z"/>
</g>
</svg>
